# xmcd
#
# Track frame offsets:
#	150
#	20565
#	38537
#	56962
#	73865
#	83587
#	102045
#	131430
#	147997
#	157862
#	179037
#	191620
#	209697
#	230995
#	255895
#	267075
#
# Disc length: 3738 seconds
#
# Revision: 0
# Processed by: cddbd v1.4PL0 Copyright (c) Steve Scherf et al.
# Submitted via: EasyCDDAExtractor 4.6.0.1
#
DISCID=e30e9810
DTITLE=Various Artist - Super Bad @ 65
DYEAR=1900
DGENRE=
TTITLE0=Frank Black at the 'G - Mother Popcorn (You Got to Have a Mother for M
TTITLE0=e)
TTITLE1=Chris Whitley - I Can't Stand Myself (When You Touch Me)
TTITLE2=Carmen Quinones (Grand Mal) with Mercury Rev - It's a Man's, Man's, Ma
TTITLE2=n's World
TTITLE3=James Taylor Quartet - In the Middle
TTITLE4=World Famous Blue Jays - I'll Go Crazy
TTITLE5=Don Fleming (Gumball) - People Wake Up and Live
TTITLE6=Q-Burns Abstract Message - Get Up (I Feel Like Being A) Sex Machine
TTITLE7=Jules Shear - Ain't That a Groove
TTITLE8=Swingin' Neck Breakers - Good, Good Lovin'
TTITLE9=Scarnella (Nels Cline and Carla Bozulich of the Geraldine Fibbers) - H
TTITLE9=ot Pants (She Got to Use What She Got to Get What She Wants)
TTITLE10=the Fleshtones - Don't Be a Dropout
TTITLE11=Chris McDermott and His Wild Combo - The Whole World Needs Liberation
TTITLE12=Sex Mob - Please, Please, Please
TTITLE13=Doublespeak - King Heroin
TTITLE14=Little Sammy D. and Newborn - Call Me Super Bad
TTITLE15=Broke Dick Dog (Mike Watt, Money Mark and Stephen Perkins) - Shhhhhhh
TTITLE15=h! (For a Little While)
EXTD=
EXTT0=
EXTT1=
EXTT2=
EXTT3=
EXTT4=
EXTT5=
EXTT6=
EXTT7=
EXTT8=
EXTT9=
EXTT10=
EXTT11=
EXTT12=
EXTT13=
EXTT14=
EXTT15=
PLAYORDER=
